<svg width="206" height="102" xmlns="http://www.w3.org/2000/svg" xmlns:xlink="http://www.w3.org/1999/xlink" xml:space="preserve" overflow="hidden"><defs><clipPath id="clip0"><rect x="27" y="11" width="206" height="102"/></clipPath></defs><g clip-path="url(#clip0)" transform="translate(-27 -11)"><path d="M138.842 112.633C138.842 112.358 139.477 111.606 140.253 110.962 141.34 110.06 141.836 110.089 142.413 111.089 142.826 111.803 142.795 112.054 142.345 111.646 141.895 111.239 140.922 111.406 140.184 112.019 139.446 112.631 138.842 112.907 138.842 112.632ZM179.921 109.305C179.969 108.14 180.206 107.903 180.525 108.7 180.814 109.422 180.778 110.285 180.446 110.617 180.114 110.949 179.878 110.358 179.921 109.305ZM147.342 104.888C148.338 103.788 149.377 102.888 149.652 102.888 149.927 102.888 149.338 103.788 148.342 104.888 147.347 105.988 146.307 106.888 146.032 106.888 145.757 106.888 146.347 105.988 147.342 104.888ZM128.655 64.2047C129.376 63.916 130.239 63.9515 130.571 64.2838 130.903 64.6159 130.313 64.8524 129.259 64.809 128.094 64.761 127.857 64.524 128.655 64.2048ZM127.111 61.1948C128.084 60.9412 129.434 60.9578 130.111 61.2326 130.788 61.5067 129.992 61.714 128.342 61.6936 126.692 61.6747 126.138 61.4491 127.111 61.1956ZM81.5921 55.2255C82.2796 54.9481 83.4046 54.9481 84.0921 55.2255 84.7796 55.503 84.2172 55.7299 82.8421 55.7299 81.4671 55.7299 80.9046 55.5027 81.5921 55.2255ZM121.122 50.1515C123.751 49.9448 127.801 49.9474 130.122 50.1591 132.443 50.3689 130.292 50.5379 125.342 50.5348 120.392 50.5318 118.493 50.3602 121.122 50.1535ZM60.4933 49.1378C60.2365 48.7253 63.9225 48.5084 68.6843 48.6558 84.6633 49.1505 86.4366 49.5259 73.6511 49.7076 66.6711 49.8066 60.7501 49.5504 60.4933 49.1378ZM129.604 44.1805C130.848 43.9413 132.648 43.9504 133.604 44.1995 134.56 44.4496 133.542 44.6455 131.342 44.6343 129.142 44.623 128.36 44.4186 129.604 44.1793ZM75.8572 43.1391C69.5405 42.9626 64.0487 42.4962 63.6532 42.1029 63.2578 41.7096 68.201 41.5273 74.6382 41.6977 81.0753 41.8681 86.7696 42.4306 87.2921 42.9476 87.8146 43.4647 88.0396 43.7917 87.7921 43.6741 87.5446 43.5565 82.1739 43.3158 75.8572 43.1391ZM125.092 39.1594C127.155 38.9436 130.53 38.9436 132.592 39.1594 134.655 39.3752 132.967 39.5516 128.842 39.5516 124.717 39.5516 123.03 39.3751 125.092 39.1594ZM189.72 11.6067C190.151 11.177 196.318 10.9539 203.423 11.1107L216.342 11.3957 202.639 11.8916C195.102 12.1646 189.288 12.036 189.72 11.6067ZM99.0921 11.1488C102.255 10.9504 107.43 10.9504 110.592 11.1488 113.755 11.3472 111.167 11.5097 104.842 11.5097 98.5171 11.5097 95.9296 11.3472 99.0921 11.1488ZM148.092 11.1458C151.805 10.9535 157.88 10.9535 161.592 11.1458 165.305 11.3382 162.267 11.4958 154.842 11.4958 147.417 11.4958 144.38 11.3382 148.092 11.1458Z" fill="#B0D1FE"/><path d="M126.111 69.1948C127.084 68.9412 128.434 68.9579 129.111 69.2326 129.788 69.5067 128.992 69.7141 127.342 69.6936 125.692 69.6747 125.138 69.4491 126.111 69.1956ZM51.1465 67.1411C57.0888 66.9638 66.5388 66.9646 72.1465 67.1421 77.7541 67.3201 72.8921 67.4648 61.3421 67.4641 49.7921 67.4633 45.2041 67.3178 51.1465 67.1405ZM114.342 66.8879 104.342 66.2752 114.033 66.0817C119.635 65.9698 123.985 66.3099 124.342 66.888 124.682 67.438 124.821 67.8008 124.651 67.6943 124.481 67.5878 119.842 67.225 114.342 66.888Z" fill="#99C4FE"/><path d="M54.0921 36.141C60.5546 35.9668 71.1296 35.9668 77.5921 36.141 84.0546 36.3153 78.7671 36.4578 65.8421 36.4578 52.9171 36.4578 47.6296 36.3153 54.0921 36.141ZM118.493 34.1378C118.237 33.7253 121.023 33.512 124.684 33.6638 136.284 34.1446 137.646 34.5625 128.151 34.7278 123.096 34.8158 118.75 34.5501 118.493 34.1378Z" fill="#8ABBFE"/><path d="M138.342 109.888C139.338 108.788 140.377 107.888 140.652 107.888 140.927 107.888 140.338 108.788 139.342 109.888 138.347 110.988 137.307 111.888 137.032 111.888 136.757 111.888 137.347 110.988 138.342 109.888ZM182.66 109.67C183.193 109.136 184.465 108.877 185.486 109.094 186.861 109.385 186.609 109.636 184.516 110.063 182.691 110.435 182.034 110.296 182.66 109.67ZM44.6546 105.205C45.3765 104.916 46.239 104.951 46.5713 105.284 46.9036 105.616 46.313 105.852 45.2588 105.809 44.0938 105.761 43.8569 105.524 44.6546 105.205ZM70.6546 105.205C71.3765 104.916 72.239 104.951 72.5713 105.284 72.9035 105.616 72.3128 105.852 71.2588 105.809 70.0938 105.761 69.8569 105.524 70.6546 105.205ZM109.655 105.205C110.376 104.916 111.239 104.951 111.571 105.284 111.904 105.616 111.313 105.852 110.259 105.809 109.094 105.761 108.857 105.524 109.655 105.205ZM57.5921 102.225C58.2796 101.948 59.4046 101.948 60.0921 102.225 60.7796 102.503 60.2171 102.73 58.8421 102.73 57.4671 102.73 56.9046 102.503 57.5921 102.225ZM139.592 102.225C140.28 101.948 141.405 101.948 142.092 102.225 142.78 102.503 142.217 102.73 140.842 102.73 139.467 102.73 138.905 102.503 139.592 102.225ZM191.655 102.207C192.377 101.918 193.239 101.953 193.571 102.285 193.903 102.618 193.313 102.854 192.259 102.811 191.094 102.763 190.857 102.526 191.655 102.207ZM115.611 97.7212C116.192 97.1401 117.257 96.8614 117.979 97.1019 118.728 97.3517 118.274 97.8048 116.922 98.1584 115.259 98.5934 114.869 98.4634 115.611 97.7212ZM172.342 97.8897 169.342 97.1263 172.033 97.0081C173.513 96.943 175.002 97.3395 175.342 97.8897 175.682 98.4398 175.821 98.8365 175.651 98.7714 175.481 98.7064 173.992 98.3096 172.342 97.8897ZM35.1111 97.1967C36.0841 96.9431 37.4341 96.9597 38.1111 97.2346 38.7882 97.5085 37.9921 97.7159 36.3421 97.6955 34.6921 97.6766 34.1382 97.451 35.1111 97.1974ZM91.0921 97.2005C92.0546 96.9492 93.6296 96.9492 94.5921 97.2005 95.5546 97.4522 94.7671 97.6578 92.8421 97.6578 90.9171 97.6578 90.1296 97.4518 91.0921 97.2005ZM103.092 97.2005C104.055 96.9492 105.63 96.9492 106.592 97.2005 107.555 97.4522 106.767 97.6578 104.842 97.6578 102.917 97.6578 102.13 97.4518 103.092 97.2005ZM159.092 97.2005C160.055 96.9492 161.63 96.9492 162.592 97.2005 163.555 97.4522 162.767 97.6578 160.842 97.6578 158.917 97.6578 158.13 97.4518 159.092 97.2005ZM27 87.8895C27 86.5145 27.227 85.952 27.5044 86.6395 27.7818 87.327 27.7818 88.452 27.5044 89.1395 27.227 89.827 27 89.2646 27 87.8895ZM65.8421 72.8895C65.8421 72.3117 69.0088 71.8895 73.3421 71.8895 77.6755 71.8895 80.8421 72.3117 80.8421 72.8895 80.8421 73.4673 77.6755 73.8895 73.3421 73.8895 69.0088 73.8895 65.8421 73.4673 65.8421 72.8895ZM58.8421 60.8895C58.8421 60.2762 63.6754 59.8895 71.3421 59.8895 79.0088 59.8895 83.8421 60.2762 83.8421 60.8895 83.8421 61.5029 79.0088 61.8895 71.3421 61.8895 63.6754 61.8895 58.8421 61.5029 58.8421 60.8895ZM114.842 60.8895C114.842 60.3395 117.092 59.8895 119.842 59.8895 122.592 59.8895 124.842 60.3395 124.842 60.8895 124.842 61.4395 122.592 61.8895 119.842 61.8895 117.092 61.8895 114.842 61.4395 114.842 60.8895ZM49.8421 54.8895C49.8421 54.2658 55.6754 53.8895 65.3421 53.8895 75.0088 53.8895 80.8421 54.2659 80.8421 54.8895 80.8421 55.5131 75.0088 55.8895 65.3421 55.8895 55.6754 55.8895 49.8421 55.5131 49.8421 54.8895ZM122.842 54.8895C122.842 54.3395 125.119 53.8895 127.901 53.8895 131.019 53.8895 132.723 54.2731 132.342 54.8895 132.002 55.4395 129.726 55.8895 127.283 55.8895 124.841 55.8895 122.842 55.4395 122.842 54.8895ZM54.0921 35.1428C60.5546 34.9685 71.1296 34.9685 77.5921 35.1428 84.0546 35.317 78.7671 35.4595 65.8421 35.4595 52.9171 35.4595 47.6296 35.317 54.0921 35.1428ZM123.092 33.1544C125.705 32.9484 129.98 32.9484 132.592 33.1544 135.205 33.3604 133.067 33.529 127.842 33.529 122.617 33.529 120.48 33.3604 123.092 33.1544Z" fill="#75B0FE"/><path d="M174.921 108.305C174.969 107.14 175.206 106.903 175.525 107.7 175.814 108.422 175.778 109.285 175.446 109.617 175.114 109.949 174.878 109.359 174.921 108.305ZM126.111 70.1948C127.084 69.9412 128.434 69.9578 129.111 70.2326 129.788 70.5066 128.992 70.714 127.342 70.6936 125.692 70.6747 125.138 70.449 126.111 70.1956ZM47.3421 68.1976C64.4395 67.4824 82.6163 67.4512 82.1899 68.1379 81.9337 68.5504 72.4132 68.7985 61.0331 68.6892 49.6531 68.58 43.4921 68.3589 47.3421 68.1977ZM124.842 60.4929C124.842 60.2756 126.604 59.9299 128.758 59.7244 130.912 59.5192 132.46 59.698 132.199 60.1194 131.724 60.8884 124.842 61.2377 124.842 60.4929ZM81.5921 54.2255C82.2796 53.9481 83.4046 53.9481 84.0921 54.2255 84.7796 54.503 84.2172 54.73 82.8421 54.73 81.4671 54.73 80.9046 54.5028 81.5921 54.2255ZM73.3421 48.8878 60.3421 48.2962 73.0331 48.0921C80.6437 47.9696 85.9715 48.2882 86.3421 48.8879 86.6819 49.4379 86.8211 49.796 86.6513 49.6838 86.4812 49.5715 80.4923 49.2133 73.3423 48.8879ZM121.592 49.1558C123.93 48.9453 127.755 48.9453 130.092 49.1558 132.43 49.3663 130.517 49.5386 125.842 49.5386 121.167 49.5386 119.255 49.3663 121.592 49.1558ZM134.842 45.0547C134.842 44.413 133.38 43.8206 131.592 43.7382 128.396 43.5908 128.39 43.5814 131.214 43.16 134.08 42.7325 136.82 44.2437 135.525 45.538 135.15 45.9137 134.842 45.6964 134.842 45.0547ZM67.3421 41.231C76.845 40.5002 88.6206 40.4478 88.1909 41.138 87.9343 41.5505 82.2381 41.8093 75.5331 41.7133 68.828 41.6173 65.1421 41.4003 67.3421 41.231ZM125.57 38.1663C127.345 37.9456 130.495 37.9417 132.57 38.1587 134.645 38.3753 133.192 38.5559 129.342 38.5604 125.492 38.5642 123.795 38.3877 125.57 38.1668ZM136.921 34.3047C136.969 33.1397 137.206 32.9028 137.525 33.7005 137.814 34.4224 137.778 35.2849 137.446 35.6172 137.114 35.9494 136.878 35.3587 136.921 34.3047Z" fill="#4C99FE"/><path d="M73.8421 107.495C73.8421 107.279 74.5405 106.834 75.3941 106.506 76.284 106.165 76.6854 106.332 76.3351 106.899 75.7478 107.849 73.8421 108.305 73.8421 107.495ZM194.175 104.432C194.175 103.631 194.558 103.212 195.025 103.501 195.492 103.79 195.616 104.445 195.3 104.957 194.491 106.265 194.176 106.118 194.176 104.432ZM48.6546 102.205C49.3765 101.916 50.239 101.951 50.5713 102.284 50.9036 102.616 50.3129 102.852 49.2588 102.809 48.0938 102.761 47.8569 102.524 48.6546 102.205ZM113.655 102.205C114.376 101.916 115.239 101.951 115.571 102.284 115.903 102.616 115.313 102.852 114.259 102.809 113.094 102.761 112.857 102.524 113.655 102.205ZM127.842 65.5045C127.842 65.2936 128.743 64.8856 129.844 64.5977 130.944 64.3097 131.593 64.4824 131.284 64.9811 130.746 65.852 127.842 66.2935 127.842 65.5045Z" fill="#3189FE"/><path d="M30.8421 112.335C30.8421 112.031 31.5532 108.656 32.4223 104.835 33.746 99.0151 34.3347 97.8878 36.05 97.8878 37.8984 97.8878 38.032 98.3016 37.4221 102.138 37.0505 104.475 36.4942 107.4 36.1859 108.638 35.7097 110.549 36.0271 110.888 38.2927 110.888 39.8163 110.888 40.6952 111.317 40.3421 111.888 39.7083 112.913 30.8421 113.331 30.8421 112.335ZM42.7523 111.28C41.6183 109.913 41.7038 109.462 43.321 108.28 44.3679 107.514 45.8685 106.888 46.6557 106.888 47.8738 106.888 47.8826 107.135 46.7146 108.55 45.6394 109.853 45.6143 110.305 46.5984 110.636 48.1407 111.155 47.2228 112.888 45.4055 112.888 44.6804 112.888 43.4864 112.164 42.7523 111.28ZM49.6124 112.325C49.3027 112.015 49.2937 109.94 49.5924 107.713L50.1354 103.664 46.7387 104.382C44.1547 104.927 43.6096 104.818 44.4603 103.925 45.0753 103.279 47.3253 102.895 49.4603 103.07 52.6615 103.332 53.4005 103.8 53.675 105.74 54.3719 110.663 51.9221 114.634 49.6124 112.325ZM58.396 111.638C58.1851 110.95 57.7776 108.7 57.4902 106.638 57.0127 103.21 57.1719 102.888 59.3446 102.888 61.366 102.888 61.7705 103.449 62.0501 106.638L62.3788 110.388 64.2957 106.638C65.35 104.575 66.5792 102.888 67.0273 102.888 68.2003 102.888 68.1141 103.149 65.2566 108.262 62.7172 112.805 59.2737 114.5 58.396 111.638ZM69.5088 112.221C68.2726 110.985 68.83 108.106 70.4239 107.495 73.1556 106.447 74.1791 106.777 72.916 108.299 72.0464 109.347 72.0373 109.89 72.882 110.412 74.3762 111.335 75.5387 110.048 76.4157 106.5 77.1268 103.623 77.1147 103.614 73.388 104.313 70.8422 104.791 69.8566 104.676 70.304 103.951 71.2758 102.379 79.5227 102.609 80.1431 104.226 81.0787 106.664 79.3388 112.361 77.5536 112.705 76.613 112.886 75.8434 112.535 75.8434 111.926 75.8434 111.14 75.2808 111.118 73.9091 111.852 71.6656 113.053 70.4446 113.155 69.5101 112.221ZM87.1649 111.489C87.4601 110.72 88.2418 107.345 88.902 103.989 90.0376 98.2169 90.2571 97.8878 92.9723 97.8878 95.5581 97.8878 95.8421 98.2178 95.8421 101.221 95.8421 106.171 96.9024 106.361 99.5684 101.891 101.314 98.9637 102.612 97.8878 104.399 97.8878 107.234 97.8878 107.349 98.845 105.479 106.888 104.457 111.283 103.762 112.452 102.021 112.707 99.5997 113.063 99.4448 112.305 100.77 106.595 101.896 101.745 99.9885 103.019 97.3447 108.882 94.4398 115.324 91.9339 113.511 91.8254 104.888 91.7694 100.457 90.3612 102.605 89.3668 108.638 88.9816 110.975 88.2077 112.888 87.6472 112.888 87.0867 112.888 86.8697 112.258 87.1649 111.489ZM107.752 111.28C106.618 109.913 106.704 109.462 108.321 108.28 109.368 107.514 110.868 106.888 111.656 106.888 112.874 106.888 112.883 107.135 111.715 108.551 110.64 109.853 110.614 110.305 111.599 110.636 113.141 111.155 112.223 112.888 110.406 112.888 109.681 112.888 108.487 112.164 107.753 111.28ZM114.612 112.325C114.303 112.015 114.294 109.94 114.594 107.713L115.137 103.665 111.74 104.382C109.156 104.927 108.611 104.818 109.461 103.925 110.076 103.28 112.326 102.895 114.461 103.07 117.663 103.332 118.402 103.8 118.676 105.74 119.373 110.663 116.923 114.635 114.613 112.325ZM121.509 112.221C120.381 111.093 120.768 109.888 122.259 109.888 123.038 109.888 123.882 110.451 124.134 111.138 124.491 112.113 124.873 112.123 125.869 111.186 126.891 110.225 126.606 109.738 124.448 108.755 122.576 107.901 121.841 106.893 122.046 105.457 122.284 103.796 123.18 103.327 126.592 103.081 129.151 102.895 130.842 103.202 130.842 103.85 130.842 104.499 129.849 104.677 128.342 104.299 126.777 103.906 125.842 104.095 125.842 104.804 125.842 105.428 126.967 106.365 128.342 106.888 131.323 108.022 131.596 110.414 128.908 111.853 126.727 113.02 122.517 113.23 121.509 112.221ZM138.833 110.398C140.844 108.257 141.012 107.555 140.029 105.398 139.041 103.23 139.127 102.888 140.664 102.888 141.642 102.888 142.982 103.428 143.642 104.088 144.575 105.021 145.109 105.021 146.042 104.088 148.249 101.881 149.22 102.856 147.088 105.138 145.219 107.138 145.144 107.604 146.414 109.329 147.199 110.397 147.842 111.634 147.842 112.079 147.842 113.619 143.938 112.881 142.974 111.159 142.057 109.52 141.906 109.52 140.095 111.159 137.17 113.806 136.188 113.214 138.833 110.398ZM154.842 112.394C154.842 112.058 155.553 108.656 156.422 104.835 157.935 98.1859 158.128 97.888 160.922 97.888 163.662 97.888 163.842 98.1345 163.842 101.888 163.842 104.088 164.224 105.888 164.69 105.888 165.157 105.888 166.35 104.088 167.342 101.888 168.834 98.5798 169.638 97.888 171.994 97.888 175.092 97.888 175.304 98.544 173.934 103.888 173.44 105.813 172.759 108.625 172.42 110.138 171.99 112.056 171.177 112.888 169.729 112.888 167.81 112.888 167.704 112.495 168.311 107.638L168.968 102.388 165.885 107.638C161.86 114.491 159.842 114.575 159.842 107.888 159.842 101.658 158.196 101.344 157.288 107.4 156.916 109.882 156.213 112.158 155.727 112.459 155.24 112.76 154.842 112.73 154.842 112.394ZM177.042 111.688C175.141 109.786 175.584 105.096 177.776 103.923 180.464 102.485 186.584 102.626 187.112 104.138 187.958 106.564 186.59 107.888 183.235 107.888 180.509 107.888 179.842 108.281 179.842 109.888 179.842 112.219 180.191 112.311 182.81 110.676 183.878 110.009 185.096 109.808 185.518 110.23 185.939 110.652 185.622 111.415 184.813 111.927 182.736 113.24 178.463 113.109 177.042 111.688ZM183.842 105.388C183.842 104.563 183.215 103.888 182.449 103.888 181.683 103.888 180.797 104.563 180.48 105.388 180.089 106.408 180.535 106.888 181.873 106.888 182.957 106.888 183.842 106.213 183.842 105.388ZM189.357 108.638C190.153 103.744 191.103 102.391 193.184 103.189 194.356 103.639 194.478 104.545 193.776 107.572 193.288 109.671 192.879 111.725 192.866 112.138 192.855 112.55 191.903 112.888 190.754 112.888 188.856 112.888 188.729 112.502 189.357 108.638ZM196.241 107.852C196.337 103.093 196.48 102.832 198.842 103.102 200.846 103.331 201.294 103.884 201.098 105.888 200.592 111.072 199.781 112.888 197.972 112.888 196.425 112.888 196.155 112.104 196.241 107.852ZM204.967 111.986C203.251 110.9 203.176 106.396 204.84 104.391 206.42 102.487 213.209 102.42 214.763 104.292 218.475 108.765 210.174 115.284 204.967 111.986ZM210.235 110.306C210.569 109.436 210.842 107.599 210.842 106.223 210.842 102.281 208.386 104.022 208.032 108.215 207.719 111.917 209.11 113.238 210.235 110.306ZM217.509 112.221C216.381 111.093 216.768 109.888 218.259 109.888 219.038 109.888 219.882 110.451 220.134 111.138 220.491 112.113 220.873 112.123 221.869 111.186 222.891 110.225 222.606 109.738 220.448 108.755 218.576 107.901 217.841 106.893 218.046 105.457 218.284 103.796 219.18 103.327 222.592 103.081 225.151 102.895 226.842 103.202 226.842 103.85 226.842 104.499 225.849 104.677 224.342 104.299 222.777 103.906 221.842 104.095 221.842 104.804 221.842 105.428 222.967 106.365 224.342 106.888 227.323 108.022 227.596 110.414 224.908 111.853 222.727 113.02 218.517 113.23 217.509 112.221ZM114.842 100.069C114.842 98.8608 116.739 97.4518 117.433 98.1453 117.685 98.3971 117.204 99.1722 116.366 99.8679 115.416 100.657 114.842 100.733 114.842 100.069ZM27.8421 87.8879C27.8421 85.901 28.5088 85.888 130.342 85.888 232.175 85.888 232.842 85.8994 232.842 87.8879 232.842 89.8749 232.175 89.888 130.342 89.888 28.5088 89.888 27.8421 89.8766 27.8421 87.8879ZM83.4578 64.138C86.2364 50.5672 91.4547 26.2577 92.3664 22.6379L93.0589 19.888 85.7005 19.7077 78.3422 19.5274 85.8421 18.9576C92.6553 18.4399 93.3714 18.1817 93.6617 16.1377 93.9776 13.9141 93.8438 13.8878 82.245 13.8878 75.7901 13.8878 70.6963 13.7158 70.9254 13.5059 71.1546 13.2957 81.2885 12.8009 93.4451 12.4059L115.548 11.6878 109.733 38.5378C106.535 53.3052 103.901 65.7252 103.88 66.1378 103.858 66.5503 108.395 66.8878 113.959 66.8878 123.962 66.8878 124.069 66.9142 123.472 69.1378 123.141 70.3752 122.863 72.1753 122.856 73.1378 122.844 74.7479 121.18 74.8878 102.049 74.8878L81.2568 74.8878ZM131.42 64.138C132.664 58.2255 134.843 48.1081 136.262 41.655 137.681 35.2018 138.842 29.6893 138.842 29.4049 138.842 29.1208 136.03 28.8103 132.592 28.7154L126.342 28.5427 132.842 27.9652C138.581 27.4555 139.379 27.1283 139.657 25.1724 139.963 23.0186 139.672 22.9479 129.157 22.6347L118.342 22.3127 129.476 22.1003C140.441 21.8913 140.616 21.8509 141.08 19.4247 141.547 16.981 141.483 16.9589 132.946 16.6303L124.342 16.2993 132.975 16.0937C140.676 15.9104 141.665 15.6719 142.132 13.888 142.62 12.0234 143.496 11.8881 155.085 11.8881L167.515 11.8881 168.842 29.3881C169.572 39.0131 170.461 46.8881 170.816 46.8881 171.172 46.8881 175.671 39.0131 180.814 29.3881L190.164 11.8881 202.503 11.8881C209.29 11.8881 214.838 12.2256 214.832 12.6381 214.829 13.0505 211.902 26.8771 208.332 43.3638 204.763 59.8503 201.842 73.6878 201.842 74.1137 201.842 74.5396 197.117 74.8881 191.342 74.8881 183.069 74.8881 180.842 74.5947 180.842 73.5046 180.842 72.7437 182.642 63.6913 184.842 53.3881 187.042 43.0848 188.839 33.9198 188.835 33.0215 188.831 32.1231 183.534 41.0631 177.064 52.8881L165.3 74.3881 158.746 74.6799 152.192 74.9716 150.446 56.6799C148.269 33.871 147.745 30.2761 146.853 32.0236 146.47 32.7741 144.204 42.7257 141.818 54.1382L137.479 74.8882 133.318 74.8882 129.157 74.8882ZM65.0921 30.1446C69.3546 29.9572 76.3296 29.9572 80.5921 30.1446 84.8546 30.3321 81.3671 30.4856 72.8421 30.4856 64.3171 30.4856 60.8296 30.3321 65.0921 30.1446ZM68.0921 24.1447C72.3546 23.9572 79.3296 23.9572 83.5921 24.1447 87.8546 24.3321 84.3671 24.4856 75.8421 24.4856 67.3171 24.4856 63.8296 24.3321 68.0921 24.1447Z" fill="#006DFE"/></g></svg>